<svg xmlns="http://www.w3.org/2000/svg" viewBox="0 0 1440 914.08"><defs><style>.cls-1{fill:#2b2b4a;}.cls-2{fill:#2a221a;}.cls-18,.cls-2,.cls-3,.cls-4,.cls-5,.cls-6,.cls-7{opacity:0.39;}.cls-10,.cls-11,.cls-12,.cls-13,.cls-14,.cls-15,.cls-16,.cls-17,.cls-19,.cls-3,.cls-4,.cls-5,.cls-6,.cls-8,.cls-9{fill:none;stroke-miterlimit:10;}.cls-3{stroke:#ec553f;}.cls-10,.cls-11,.cls-12,.cls-13,.cls-14,.cls-15,.cls-16,.cls-17,.cls-3,.cls-4,.cls-5,.cls-6,.cls-8,.cls-9{stroke-linecap:round;}.cls-3,.cls-4,.cls-5{stroke-width:5px;}.cls-4{stroke:#eec585;}.cls-5,.cls-6{stroke:#2b2b4a;}.cls-6{stroke-width:4.07px;}.cls-10,.cls-11,.cls-12,.cls-13,.cls-14,.cls-15,.cls-16,.cls-17,.cls-8,.cls-9{stroke:#2a221a;stroke-width:8px;}.cls-9{stroke-dasharray:50.4 50.4;}.cls-10{stroke-dasharray:56.54 56.54;}.cls-11{stroke-dasharray:52.93 52.93;}.cls-12{stroke-dasharray:54.16 54.16;}.cls-13{stroke-dasharray:44.64 44.64;}.cls-14{stroke-dasharray:32.68 32.68;}.cls-15{stroke-dasharray:33.01 33.01;}.cls-16{stroke-dasharray:97.89 97.89;}.cls-17{stroke-dasharray:97.08 97.08;}.cls-18,.cls-22{fill:#393c77;}.cls-19{stroke:#393c77;stroke-width:3px;}.cls-19,.cls-20,.cls-21,.cls-22{opacity:0.3;}.cls-20{fill:#eec585;}.cls-21{fill:#ec553f;}</style></defs><g id="Layer_2" data-name="Layer 2"><g id="backgrounds"><rect class="cls-1" y="4" width="1440" height="902.9"/><circle class="cls-2" cx="720" cy="455.19" r="381.82"/></g><g id="lines"><path class="cls-3" d="M436.25,253.67A348.63,348.63,0,0,1,713,107.31"/><path class="cls-3" d="M602.13,782.61A348.07,348.07,0,0,1,374.19,416.73"/><path class="cls-3" d="M1004.39,655.81a348.91,348.91,0,0,1-232.3,143.46"/><path class="cls-3" d="M809.41,118.91a348.28,348.28,0,0,1,253.11,274.71"/><path class="cls-4" d="M433.62,394.8A295.84,295.84,0,0,1,498.11,263"/><path class="cls-4" d="M608.79,728.75A298.07,298.07,0,0,1,467,603.25"/><path class="cls-4" d="M950.82,647.18A296.66,296.66,0,0,1,784.19,746"/><path class="cls-4" d="M942.72,254.06a297.22,297.22,0,0,1,77,231.49"/><path class="cls-4" d="M572.44,200.07a295.5,295.5,0,0,1,151.91-41.76,298.63,298.63,0,0,1,59.84,6"/><path class="cls-5" d="M576,285.25a222.7,222.7,0,0,1,44.55-29.42"/><path class="cls-5" d="M550.29,311q7.08-8.32,15-15.93"/><path class="cls-5" d="M515.32,367.23a222.4,222.4,0,0,1,25.31-44.09"/><path class="cls-5" d="M501.65,411.07A220.8,220.8,0,0,1,508.91,384"/><path class="cls-5" d="M497.72,469.27q-.44-7-.44-14.08a225,225,0,0,1,2.09-30.68"/><path class="cls-5" d="M553.61,603.25a222,222,0,0,1-54.32-118"/><path class="cls-5" d="M575.26,624.48q-5.14-4.41-10-9.12"/><path class="cls-5" d="M630.6,659.25a222.49,222.49,0,0,1-28.26-14.92"/><path class="cls-5" d="M667.94,671.8q-10.17-2.44-20-5.79"/><path class="cls-5" d="M746.51,676.35a225.88,225.88,0,0,1-63-1.41"/><path class="cls-5" d="M809.42,659.24a221.31,221.31,0,0,1-37.33,12.55"/><path class="cls-5" d="M841.31,642q-9,5.88-18.67,10.9"/><path class="cls-5" d="M912.24,567.73A223.91,223.91,0,0,1,856,631.56"/><path class="cls-5" d="M937.18,504.78a221.39,221.39,0,0,1-16.85,47.87"/><path class="cls-5" d="M941.31,430a225.94,225.94,0,0,1-.64,55.57"/><path class="cls-5" d="M903.46,328.88a221.71,221.71,0,0,1,33.72,76.7"/><path class="cls-5" d="M864,285.25a223.44,223.44,0,0,1,28.22,28.66"/><path class="cls-5" d="M786.72,242.64a221.82,221.82,0,0,1,59.37,28.94"/><path class="cls-5" d="M733.61,232.88a221.49,221.49,0,0,1,38.48,5.72"/><path class="cls-5" d="M653.25,242.65a220.24,220.24,0,0,1,30.25-7.2"/><path class="cls-6" d="M730.58,274.12a181.86,181.86,0,0,1,42.83,7.55"/><path class="cls-6" d="M701,274.91q8.85-1,17.77-1.05"/><path class="cls-6" d="M648.75,288.62a181.87,181.87,0,0,1,39.66-11.91"/><path class="cls-6" d="M616.11,306.9a180,180,0,0,1,19.47-12"/><path class="cls-6" d="M581.2,339.13q3.64-4.38,7.62-8.57a183.41,183.41,0,0,1,18.42-17"/><path class="cls-6" d="M539.24,449.69a180.68,180.68,0,0,1,33.93-100.21"/><path class="cls-6" d="M540.16,474.37c-.39-3.66-.66-7.33-.83-11"/><path class="cls-6" d="M553.43,525.93a179.33,179.33,0,0,1-8.37-24.65"/><path class="cls-6" d="M568.49,554.26c-3.1-4.75-6-9.63-8.57-14.6"/><path class="cls-6" d="M612.41,601A185.93,185.93,0,0,1,595.86,587a182.92,182.92,0,0,1-19.93-22.21"/><path class="cls-6" d="M659.21,626.06a180.52,180.52,0,0,1-29.1-13.48"/><path class="cls-6" d="M687.73,633.73c-5.76-1.06-11.49-2.4-17.15-4"/><path class="cls-6" d="M771.29,629.5a182.33,182.33,0,0,1-69,6.29"/><path class="cls-6" d="M821.3,606.23a181,181,0,0,1-36.78,18.88"/><path class="cls-6" d="M865.62,564.29a183.62,183.62,0,0,1-31.49,32.52"/><path class="cls-6" d="M899.85,483.29a180.49,180.49,0,0,1-23,64.25"/><path class="cls-6" d="M900.91,435.36a182.81,182.81,0,0,1,.65,32.75"/><path class="cls-6" d="M879.08,366.9A180.67,180.67,0,0,1,898,417.26"/><path class="cls-6" d="M853.12,331.38a181.58,181.58,0,0,1,19.57,24.93"/><path class="cls-6" d="M800.11,292.16A180.55,180.55,0,0,1,822,304.84"/><g class="cls-7"><path class="cls-8" d="M369.08,240.49q6.54-10.67,13.71-20.9"/><path class="cls-9" d="M414.13,180.16C489.43,96.48,598.57,43.86,720,43.86A410.6,410.6,0,0,1,851.54,65.35"/><path class="cls-8" d="M875.15,74.13q11.6,4.73,22.85,10.13"/></g><g class="cls-7"><path class="cls-8" d="M366.73,666q-6.41-10.71-12.17-21.83"/><path class="cls-10" d="M332.09,592.35a410.61,410.61,0,0,1-23.42-137.16,415.46,415.46,0,0,1,4-57.89"/><path class="cls-8" d="M317.62,369.47q2.6-12.29,5.93-24.29"/></g><g class="cls-7"><path class="cls-8" d="M809.5,856.76q-12.15,2.7-24.55,4.67"/><path class="cls-11" d="M732.28,866.34q-6.12.18-12.28.18a409.59,409.59,0,0,1-257.95-90.91"/><path class="cls-8" d="M442,758.35q-9.21-8.46-17.9-17.45"/></g><g class="cls-7"><path class="cls-8" d="M1105.19,599.8q-4.41,11.73-9.5,23.12"/><path class="cls-12" d="M1070.38,670.76A413.37,413.37,0,0,1,938,804.09"/><path class="cls-8" d="M914.55,817.7q-11,5.91-22.37,11.16"/></g><g class="cls-7"><path class="cls-8" d="M1004.4,158q9,8.65,17.53,17.83"/><path class="cls-13" d="M1050.43,210.18A409.32,409.32,0,0,1,1131,438.24"/><path class="cls-8" d="M1131.3,460.57q-.16,12.58-1.07,25"/></g><g class="cls-7"><path class="cls-8" d="M672.53,904.56q-8.24-.84-16.38-2"/><path class="cls-14" d="M624,896.94C420,853.4,267,672.16,267,455.19,267,239.15,418.69,58.53,621.36,14"/><path class="cls-8" d="M637.39,10.8q8.08-1.47,16.28-2.66"/></g><g class="cls-7"><path class="cls-8" d="M764.9,5.83q8.24.82,16.38,2"/><path class="cls-15" d="M813.79,13.52c203.81,43.66,356.62,224.82,356.62,441.67,0,220.42-157.87,404-366.71,443.72"/><path class="cls-8" d="M787.43,901.7q-8.13,1.24-16.36,2.19"/></g><g class="cls-7"><path class="cls-8" d="M559.37,906.9a476.69,476.69,0,0,1-46.14-19.2"/><path class="cls-16" d="M429.86,836.71C314.91,749.16,240.72,610.84,240.72,455.19c0-172.64,91.28-324,228.21-408.34"/><path class="cls-8" d="M511.86,23.34A478,478,0,0,1,557.94,4"/></g><g class="cls-7"><path class="cls-8" d="M887.34,5.93a477.65,477.65,0,0,1,45.85,19.89"/><path class="cls-17" d="M1015.15,77.54c112.09,87.73,184.13,224.28,184.13,377.65,0,172.16-90.76,323.11-227,407.62"/><path class="cls-8" d="M929.74,886.27a476.83,476.83,0,0,1-46,19.51"/></g></g><g id="clouds"><path class="cls-18" d="M1291.26,716A38.49,38.49,0,0,0,1341,693.89,668.45,668.45,0,0,0,1373.5,580a15.35,15.35,0,0,0,27.77-6,693.79,693.79,0,0,0,9.33-157.39,15.34,15.34,0,0,0-26.91-9.23,658.26,658.26,0,0,0-47.56-203.29A38.5,38.5,0,0,0,1285.92,183a37.58,37.58,0,0,0-4.72,2.32,38.51,38.51,0,0,0-18,43,28.11,28.11,0,0,0-19.5,2.24c-.46.23-.91.48-1.36.73a28.21,28.21,0,0,0-11,37.19,426.64,426.64,0,0,1,44.84,157,431.28,431.28,0,0,1-15.84,159,28.22,28.22,0,0,0,19.15,35,29.62,29.62,0,0,0,5.1,1q-6.8,23.14-15.5,45.84A38.51,38.51,0,0,0,1291.26,716Z"/><path class="cls-18" d="M216.23,905.78H391.61a431.31,431.31,0,0,1-100.05-96.84,28.2,28.2,0,0,0-39.47-5.77,28.55,28.55,0,0,0-3.86,3.47q-14.4-19.35-27.29-40a38.5,38.5,0,1,0-65.29,40.81A668.52,668.52,0,0,0,227,902,15.35,15.35,0,0,0,216.23,905.78Z"/><path class="cls-18" d="M313.67,29.77q12.88-12.28,26.55-23.84H229.3q-6.53,7.11-12.83,14.4a15.35,15.35,0,0,0-27.08-8.64,693.84,693.84,0,0,0-86.77,131.63,15.34,15.34,0,0,0,18.69,21.45A658.66,658.66,0,0,0,60.85,364.6a38.5,38.5,0,0,0,75.26,15.46,28.07,28.07,0,0,0,18,7.82c.51,0,1,0,1.54,0a28.22,28.22,0,0,0,28.14-26.7,426.59,426.59,0,0,1,39.65-158.34A431,431,0,0,1,316.68,73.06a28.21,28.21,0,0,0-3-43.29Z"/></g><g id="Layer_6" data-name="Layer 6"><line class="cls-19" x1="1101.88" y1="785.94" x2="1043.55" y2="753.7"/><circle class="cls-20" cx="253.55" cy="175.47" r="7.63"/><circle class="cls-20" cx="149.72" cy="630.57" r="8.46"/><circle class="cls-20" cx="270.99" cy="794.49" r="9.81"/><circle class="cls-20" cx="154.41" cy="79.37" r="3.53"/><circle class="cls-20" cx="26.64" cy="194.88" r="6.17"/><circle class="cls-20" cx="1259.31" cy="77.61" r="1.76"/><circle class="cls-20" cx="1183.37" cy="118.89" r="9.55"/><circle class="cls-20" cx="1394.29" cy="61.89" r="13.95"/><circle class="cls-20" cx="1422.88" cy="294.67" r="3.48"/><circle class="cls-20" cx="1295.52" cy="445.22" r="11.19"/><circle class="cls-20" cx="1397.63" cy="579.84" r="10.6"/><circle class="cls-20" cx="1254.24" cy="689.95" r="5.48"/><circle class="cls-20" cx="1199.1" cy="850.6" r="4.07"/><circle class="cls-20" cx="1039.11" cy="901.13" r="2.59"/><circle class="cls-20" cx="837.32" cy="841.38" r="5.78"/><circle class="cls-20" cx="974.15" cy="659.57" r="2.87"/><circle class="cls-20" cx="1252.41" cy="621.9" r="12.73"/><circle class="cls-20" cx="1382.57" cy="840.07" r="4.47"/><circle class="cls-20" cx="1414.1" cy="753.7" r="10.33"/><circle class="cls-20" cx="1316.68" cy="227.31" r="2.56"/><circle class="cls-20" cx="823.86" cy="37.7" r="4.08"/><circle class="cls-20" cx="471.04" cy="120.02" r="10.69"/><circle class="cls-20" cx="1053.03" cy="125.37" r="5.35"/><circle class="cls-20" cx="951.99" cy="131.22" r="11.2"/><circle class="cls-20" cx="287.27" cy="382.9" r="6.47"/><circle class="cls-20" cx="351.52" cy="278.46" r="5.98"/><circle class="cls-20" cx="241.73" cy="680" r="4.46"/><circle class="cls-20" cx="63.13" cy="808.77" r="4.47"/><circle class="cls-20" cx="472.24" cy="902.99" r="8.37"/><circle class="cls-20" cx="401.86" cy="696.79" r="9.35"/><circle class="cls-21" cx="277.82" cy="89.73" r="6.83"/><circle class="cls-21" cx="60.9" cy="318.66" r="2.23"/><circle class="cls-21" cx="137.9" cy="285.63" r="5.57"/><circle class="cls-21" cx="73.1" cy="478.39" r="5.5"/><circle class="cls-21" cx="60.34" cy="67.48" r="7.26"/><circle class="cls-21" cx="156.3" cy="138.01" r="1.89"/><circle class="cls-21" cx="217.09" cy="356.86" r="2.15"/><circle class="cls-21" cx="87.37" cy="583.66" r="6.41"/><circle class="cls-21" cx="226.05" cy="460.59" r="6.81"/><circle class="cls-21" cx="244.22" cy="599.37" r="6.96"/><circle class="cls-21" cx="334.81" cy="470.39" r="5.67"/><circle class="cls-21" cx="526.77" cy="79.95" r="9.02"/><circle class="cls-21" cx="360.82" cy="143.22" r="3.32"/><circle class="cls-21" cx="447.55" cy="51.9" r="8.32"/><circle class="cls-21" cx="409.88" cy="225.11" r="2.2"/><circle class="cls-21" cx="621.25" cy="35.66" r="2.04"/><circle class="cls-21" cx="1010.2" cy="51.34" r="7.76"/><circle class="cls-21" cx="1257.52" cy="162.44" r="5.11"/><circle class="cls-21" cx="1180.02" cy="45.7" r="6.2"/><circle class="cls-21" cx="1384.08" cy="113.08" r="3.75"/><circle class="cls-21" cx="1423.89" cy="199.8" r="9.79"/><circle class="cls-21" cx="1117.35" cy="257.1" r="4.93"/><circle class="cls-21" cx="1187.52" cy="373.34" r="7.51"/><circle class="cls-21" cx="1342.41" cy="360.98" r="1.98"/><circle class="cls-21" cx="1411.54" cy="417.13" r="3.47"/><circle class="cls-21" cx="1215.7" cy="522.51" r="11.7"/><circle class="cls-21" cx="1117.06" cy="438.66" r="4.63"/><circle class="cls-21" cx="1099.87" cy="611.04" r="4.71"/><circle class="cls-21" cx="1346.55" cy="647.39" r="4.14"/><circle class="cls-21" cx="1427.44" cy="681.44" r="3.02"/><path class="cls-21" d="M1331.77,733.2v0Z"/><circle class="cls-21" cx="1296.05" cy="864.5" r="5.02"/><circle class="cls-21" cx="1126.35" cy="850.6" r="4.07"/><circle class="cls-21" cx="908.63" cy="885.18" r="4.02"/><circle class="cls-21" cx="653.09" cy="867.01" r="2.51"/><circle class="cls-21" cx="489.17" cy="843.69" r="8.56"/><circle class="cls-21" cx="360.2" cy="852.64" r="2.04"/><circle class="cls-21" cx="223.76" cy="871.53" r="4.52"/><circle class="cls-21" cx="75.67" cy="753" r="2.57"/><circle class="cls-21" cx="149.72" cy="812.76" r="8.46"/><circle class="cls-21" cx="49.29" cy="885.18" r="4.02"/><circle class="cls-21" cx="1029.88" cy="793.31" r="1.18"/><circle class="cls-22" cx="80.96" cy="140.06" r="6.48"/><circle class="cls-22" cx="92.3" cy="222.46" r="4.85"/><circle class="cls-22" cx="255.82" cy="267.84" r="4.64"/><circle class="cls-22" cx="374.88" cy="202.24" r="7.36"/><circle class="cls-22" cx="135.12" cy="532.95" r="2.78"/><circle class="cls-22" cx="59.59" cy="675.04" r="6.28"/><circle class="cls-22" cx="162.89" cy="733.57" r="4.7"/><circle class="cls-22" cx="147.65" cy="898.81" r="4.19"/><circle class="cls-22" cx="302.35" cy="753" r="2.57"/><circle class="cls-22" cx="340.18" cy="627.47" r="5.37"/><circle class="cls-22" cx="403.56" cy="773.63" r="11.05"/><circle class="cls-22" cx="572" cy="907.61" r="6.47"/><circle class="cls-22" cx="747.54" cy="874.08" r="7.07"/><circle class="cls-22" cx="947.04" cy="810.54" r="6.24"/><circle class="cls-22" cx="1168.71" cy="907.55" r="3.82"/><circle class="cls-22" cx="1349.26" cy="891.91" r="2.71"/><circle class="cls-22" cx="1114.89" cy="716.82" r="2.46"/><circle class="cls-22" cx="1162.63" cy="604.93" r="5.55"/><circle class="cls-22" cx="1217.34" cy="435.67" r="1.64"/></g></g></svg>