<svg xmlns="http://www.w3.org/2000/svg" viewBox="0 0 1351.14 1163.94"><defs><style>.cls-1{fill:#2a221a;}.cls-10,.cls-11,.cls-12,.cls-13,.cls-14,.cls-2,.cls-3,.cls-4,.cls-5,.cls-6,.cls-7,.cls-8,.cls-9{fill:none;stroke-linecap:round;stroke-miterlimit:10;}.cls-2{stroke:#ec553f;}.cls-2,.cls-3,.cls-4{stroke-width:5px;}.cls-3{stroke:#eec585;}.cls-4,.cls-5{stroke:#2b2b4a;}.cls-5{stroke-width:4.07px;}.cls-10,.cls-11,.cls-12,.cls-13,.cls-14,.cls-6,.cls-7,.cls-8,.cls-9{stroke:#2a221a;}.cls-10,.cls-11,.cls-12,.cls-13,.cls-6,.cls-7,.cls-8,.cls-9{stroke-width:8px;}.cls-7{stroke-dasharray:50.4 50.4;}.cls-8{stroke-dasharray:56.54 56.54;}.cls-9{stroke-dasharray:52.93 52.93;}.cls-10{stroke-dasharray:54.16 54.16;}.cls-11{stroke-dasharray:44.64 44.64;}.cls-12{stroke-dasharray:32.68 32.68;}.cls-13{stroke-dasharray:33.01 33.01;}.cls-14{stroke-width:7.68px;stroke-dasharray:96.05;}.cls-15{fill:#393c77;}</style></defs><g id="Layer_2" data-name="Layer 2"><g id="Layer_2-2" data-name="Layer 2"><circle class="cls-1" cx="659.5" cy="525.79" r="381.82"/></g><g id="Layer_3" data-name="Layer 3"><path class="cls-2" d="M375.75,324.27A348.69,348.69,0,0,1,652.46,177.91"/><path class="cls-2" d="M541.63,853.22A348.1,348.1,0,0,1,313.69,487.33"/><path class="cls-2" d="M943.9,726.41A349,349,0,0,1,711.59,869.87"/><path class="cls-2" d="M748.91,189.51A348.28,348.28,0,0,1,1002,464.22"/><path class="cls-3" d="M373.12,465.4a295.89,295.89,0,0,1,64.49-131.84"/><path class="cls-3" d="M548.3,799.35a298,298,0,0,1-141.83-125.5"/><path class="cls-3" d="M890.32,717.78a296.7,296.7,0,0,1-166.63,98.87"/><path class="cls-3" d="M882.22,324.66a295.79,295.79,0,0,1,78.52,201.13,301.48,301.48,0,0,1-1.53,30.36"/><path class="cls-3" d="M511.94,270.67a295.51,295.51,0,0,1,151.92-41.76,298.61,298.61,0,0,1,59.83,6"/><path class="cls-4" d="M515.54,355.85a222.77,222.77,0,0,1,44.56-29.42"/><path class="cls-4" d="M489.79,381.56q7.08-8.32,14.95-15.93"/><path class="cls-4" d="M454.83,437.83a222,222,0,0,1,25.3-44.08"/><path class="cls-4" d="M441.15,481.67a220.8,220.8,0,0,1,7.26-27.09"/><path class="cls-4" d="M437.22,539.87q-.44-7-.44-14.08a225,225,0,0,1,2.1-30.68"/><path class="cls-4" d="M493.12,673.85a221.77,221.77,0,0,1-54.32-118"/><path class="cls-4" d="M514.77,695.08q-5.16-4.41-10-9.12"/><path class="cls-4" d="M570.11,729.85a221.94,221.94,0,0,1-28.27-14.92"/><path class="cls-4" d="M607.44,742.4q-10.17-2.45-20-5.79"/><path class="cls-4" d="M686,747a225.44,225.44,0,0,1-63-1.42"/><path class="cls-4" d="M748.92,729.84a220.31,220.31,0,0,1-37.32,12.55"/><path class="cls-4" d="M780.81,712.61q-9,5.88-18.67,10.9"/><path class="cls-4" d="M851.74,638.33a223.63,223.63,0,0,1-56.21,63.83"/><path class="cls-4" d="M876.68,575.38a220.67,220.67,0,0,1-16.85,47.87"/><path class="cls-4" d="M880.81,500.58a225.94,225.94,0,0,1-.64,55.57"/><path class="cls-4" d="M843,399.48a221.49,221.49,0,0,1,33.72,76.71"/><path class="cls-4" d="M803.46,355.85a222.78,222.78,0,0,1,28.22,28.66"/><path class="cls-4" d="M726.23,313.24a221.76,221.76,0,0,1,59.36,28.94"/><path class="cls-4" d="M673.11,303.48a222.71,222.71,0,0,1,38.49,5.72"/><path class="cls-4" d="M592.75,313.25a220.24,220.24,0,0,1,30.25-7.2"/><path class="cls-5" d="M670.08,344.72a182.28,182.28,0,0,1,42.83,7.55"/><path class="cls-5" d="M640.45,345.51q8.85-1,17.77-1.05"/><path class="cls-5" d="M588.26,359.22a181,181,0,0,1,39.65-11.9"/><path class="cls-5" d="M555.62,377.5a179.9,179.9,0,0,1,19.46-12"/><path class="cls-5" d="M520.7,409.73c2.43-2.92,5-5.77,7.62-8.57a182.43,182.43,0,0,1,18.43-17"/><path class="cls-5" d="M478.74,520.3a180.76,180.76,0,0,1,33.93-100.22"/><path class="cls-5" d="M479.66,545q-.59-5.51-.82-11"/><path class="cls-5" d="M492.93,596.53a182.05,182.05,0,0,1-8.37-24.65"/><path class="cls-5" d="M508,624.87q-4.65-7.14-8.57-14.61"/><path class="cls-5" d="M551.92,671.56a183.41,183.41,0,0,1-36.49-36.13"/><path class="cls-5" d="M598.72,696.66a178.92,178.92,0,0,1-29.11-13.48"/><path class="cls-5" d="M627.23,704.33q-8.64-1.59-17.15-4"/><path class="cls-5" d="M710.79,700.1a182.33,182.33,0,0,1-69,6.29"/><path class="cls-5" d="M760.8,676.83A180.46,180.46,0,0,1,724,695.71"/><path class="cls-5" d="M805.13,634.89a186.31,186.31,0,0,1-13.29,15.71,184.15,184.15,0,0,1-18.21,16.81"/><path class="cls-5" d="M839.35,553.89a180.49,180.49,0,0,1-23,64.25"/><path class="cls-5" d="M840.41,506a181.89,181.89,0,0,1,.65,32.75"/><path class="cls-5" d="M818.58,437.5a181,181,0,0,1,18.92,50.36"/><path class="cls-5" d="M792.62,402a181.58,181.58,0,0,1,19.57,24.93"/><path class="cls-5" d="M739.61,362.76a179.79,179.79,0,0,1,21.93,12.68"/><path class="cls-6" d="M308.58,311.09q6.56-10.66,13.71-20.9"/><path class="cls-7" d="M353.64,250.76A411.88,411.88,0,0,1,791.05,136"/><path class="cls-6" d="M814.65,144.73q11.61,4.72,22.85,10.14"/><path class="cls-6" d="M306.23,736.62q-6.41-10.73-12.17-21.84"/><path class="cls-8" d="M271.59,663a410.87,410.87,0,0,1-23.42-137.16,415.46,415.46,0,0,1,4-57.89"/><path class="cls-6" d="M257.12,440.07q2.6-12.29,5.93-24.28"/><path class="cls-6" d="M749,927.36q-12.15,2.7-24.56,4.67"/><path class="cls-9" d="M671.78,937q-6.12.16-12.28.17a409.61,409.61,0,0,1-257.95-90.91"/><path class="cls-6" d="M381.49,829q-9.21-8.44-17.9-17.45"/><path class="cls-6" d="M1044.69,670.4q-4.39,11.75-9.5,23.12"/><path class="cls-10" d="M1009.89,741.36A413.5,413.5,0,0,1,877.47,874.69"/><path class="cls-6" d="M854.05,888.3q-11,5.91-22.36,11.16"/><path class="cls-6" d="M943.9,228.62q9,8.65,17.53,17.83"/><path class="cls-11" d="M989.93,280.78a409.35,409.35,0,0,1,80.56,228.06"/><path class="cls-6" d="M1070.8,531.17q-.16,12.58-1.07,25"/><path class="cls-6" d="M612,975.16q-8.24-.84-16.38-2"/><path class="cls-12" d="M563.46,967.54C359.49,924,206.52,742.76,206.52,525.79c0-216,151.67-396.66,354.34-441.18"/><path class="cls-6" d="M576.89,81.4q8.1-1.47,16.29-2.66"/><path class="cls-6" d="M704.4,76.43q8.24.84,16.39,2"/><path class="cls-13" d="M753.29,84.12c203.82,43.66,356.63,224.82,356.63,441.67,0,220.42-157.88,404-366.72,443.72"/><path class="cls-6" d="M726.93,972.3q-8.13,1.25-16.36,2.19"/><circle class="cls-14" cx="660.2" cy="528.47" r="488.67"/></g><g id="Layer_4" data-name="Layer 4"><path class="cls-15" d="M295.2,14.27a38.51,38.51,0,0,0-54.15-5.69A669.51,669.51,0,0,0,156,90.93a15.35,15.35,0,0,0-27.07-8.64A693.89,693.89,0,0,0,42.12,213.92a15.34,15.34,0,0,0,18.69,21.45A658.43,658.43,0,0,0,.36,435.21a38.5,38.5,0,0,0,75.25,15.45,28.12,28.12,0,0,0,18,7.82c.52,0,1,0,1.54,0a28.22,28.22,0,0,0,28.14-26.7A426.59,426.59,0,0,1,163,273.48a431.17,431.17,0,0,1,93.23-129.82,28.2,28.2,0,0,0,.92-39.88,29.11,29.11,0,0,0-3.92-3.41q17.44-16.65,36.34-31.95A38.5,38.5,0,0,0,295.2,14.27Z"/><path class="cls-15" d="M90.42,798.63a38.51,38.51,0,0,0-15,52.34,668.87,668.87,0,0,0,66.32,98.09,15.35,15.35,0,0,0-13.21,25.16A693.51,693.51,0,0,0,243.1,1082.54a15.37,15.37,0,0,0,24.33-9.61,15.75,15.75,0,0,0,0-5.08,658,658,0,0,0,186.29,94.24,38.49,38.49,0,0,0,48.41-24.92,38,38,0,0,0,1.26-5.1,38.51,38.51,0,0,0-21.37-41.4,28.12,28.12,0,0,0,10.82-16.38c.12-.5.22-1,.31-1.51a28.21,28.21,0,0,0-21.41-32.35,426.76,426.76,0,0,1-149-66.54A431.38,431.38,0,0,1,211.07,859.53,28.19,28.19,0,0,0,167.92,855q-13.36-20.07-25.16-41.34A38.5,38.5,0,0,0,90.42,798.63Z"/><path class="cls-15" d="M1230.76,786.64a38.5,38.5,0,0,0,49.74-22.15A668.42,668.42,0,0,0,1313,650.63a15.35,15.35,0,0,0,27.77-6,692.65,692.65,0,0,0,9.33-157.39,15.37,15.37,0,0,0-23-12.46,15.64,15.64,0,0,0-3.91,3.23,658.32,658.32,0,0,0-47.56-203.29,38.5,38.5,0,0,0-50.21-21.06,39.74,39.74,0,0,0-4.72,2.32,38.52,38.52,0,0,0-18,43,28.1,28.1,0,0,0-19.5,2.23c-.46.23-.91.48-1.35.73a28.21,28.21,0,0,0-11,37.19,426.64,426.64,0,0,1,44.84,157,431.28,431.28,0,0,1-15.84,159,28.22,28.22,0,0,0,19.15,35,29.62,29.62,0,0,0,5.1,1q-6.78,23.15-15.49,45.84A38.5,38.5,0,0,0,1230.76,786.64Z"/></g></g></svg>