<svg xmlns="http://www.w3.org/2000/svg" viewBox="0 0 2956.27 901.15"><defs><style>.cls-1{fill:#835e1d;}</style></defs><g id="Layer_2" data-name="Layer 2"><g id="Layer_6" data-name="Layer 6"><path class="cls-1" d="M1033.86,901.15s-191.59-205.67-682.92-181c0,0-294-203-350.94-204.88,0,0,652.57,41.73,838.47-13.28L516.93,354s181.16,30.35,198.24,9.48c0,0,574.79,191.6,787.25,79.67,0,0-481.84-220-739.83-208.66,0,0,297.83-24.67,345.25-9.49,0,0-199.18-130.89-309.21-127.1,0,0,350.95-3.79,369.92-37.94,0,0-142.28-57.64-184-45.89,0,0,102.6-39.61,302,14,0,0,165.65,41.66,173.58,50.59,0,0-52.57,17.85-109.11,20.83,0,0,395.83,87.47,831.38,97.2,0,0-41.36,48.67-114.36,38.94,0,0,330.92,197.09,549.91,150.86,0,0,139,86.85,338.36,64.11v33S2794.13,497.69,2731,505.31c0,0,92.43,59.87,225.27,46.8v33.75s-111-16.33-118.6,4.35c0,0-273.06-111.73-567,71.6,0,0,227,110.59,336.12,69.85,0,0,61.84,122.18,307,169.49Z"/></g></g></svg>