<svg xmlns="http://www.w3.org/2000/svg" viewBox="0 0 2957.87 773.41"><defs><style>.cls-1{fill:#835e1d;}</style></defs><g id="Layer_2" data-name="Layer 2"><g id="Layer_6" data-name="Layer 6"><path class="cls-1" d="M1579,.38c14.38,10.55,330.38,239.86,575.61,184.09a2,2,0,0,0,.08-3.8C2130.11,173.94,2053.12,151,2042,125.4a2,2,0,0,1,2.17-2.71c31.54,6.17,284.31,55,339.18,46.63a2,2,0,0,1,1.5,3.49c-7.88,6.06-22.5,15-43.85,19.27a2,2,0,0,0-.36,3.74c26.76,10.63,135.37,47.88,247.32,3.52a2,2,0,0,0-1.37-3.68c-71,23.76-234.58,205.33-26.94,239.43.48.08,103.8,122.41,398.21,97.87h0S2684.5,650.27,2535.32,634.34a2,2,0,0,0-1.2,3.63c27.47,15.74,115.07,63.76,147.93,55.74,0,0-328.54-12.52-372,61.62a2,2,0,0,1-3,.49c-12.6-11.17-94.14-73.74-326.73-62.11,0,0,238.42-12.55,341.92-127.87a2,2,0,0,0-1.26-3.27c-40.71-3.83-389.5-34.74-216.64,46.83a2,2,0,0,1-1,3.73c-62.08-4.42-371.4-22.19-469.82,54.35a1.92,1.92,0,0,1-1.94.26c-15.42-6.5-199.46-80.46-387.49,11.33a2,2,0,0,0,.09,3.56c24,10.26,153.62,63.26,225.77,44.53,0,0-161.44,42.77-269.88,46.25a2,2,0,0,1-1.76-1c-5-8.48-53.36-67.28-427-66a2,2,0,0,1-.52-3.85c28.36-7.6,88-25,106.5-41.28a2,2,0,0,0-.91-3.37c-24.83-5.08-174-33-244.4,12.94a1.94,1.94,0,0,1-1.78.19c-16.4-6.45-244.93-95.38-387.35-98.5a2,2,0,0,1-.46-3.84c35.07-9.3,129.29-31.91,198.44-26.59a2,2,0,0,0,.85-3.78C373.82,512.3,79.78,402.83,8.11,429.41a2,2,0,0,1-2.63-1.5L0,395.57a1.93,1.93,0,0,1,1.35-2.19c12.3-3.75,90.35-26.42,115-5.87,0,0-88.26-54.23-110.49-47.85,0,0,85.75-25.68,127.15-14.82a2,2,0,0,0,1.72-3.41c-28.57-23.29-106.7-85.75-127.23-89.24a2,2,0,0,1-1.64-1.93V2a2,2,0,0,1,2-2h1570A1.89,1.89,0,0,1,1579,.38Z"/></g></g></svg>