<svg xmlns="http://www.w3.org/2000/svg" viewBox="0 0 92.66 165.08"><defs><style>.cls-1,.cls-3{isolation:isolate;}.cls-2,.cls-3{fill:#fff;}</style></defs><g id="Layer_2" data-name="Layer 2"><g id="Layer_3" data-name="Layer 3"><g class="cls-1"><circle class="cls-2" cx="42.93" cy="43.17" r="7.36"/><circle class="cls-2" cx="44.77" cy="19.57" r="2.03"/><circle class="cls-2" cx="36.58" cy="20.36" r="2.03"/><circle class="cls-2" cx="29.16" cy="23.9" r="2.03"/><circle class="cls-2" cx="23.4" cy="29.77" r="2.03"/><circle class="cls-2" cx="20" cy="37.26" r="2.03"/><circle class="cls-2" cx="19.36" cy="45.46" r="2.03"/><circle class="cls-2" cx="21.56" cy="53.38" r="2.03"/><circle class="cls-2" cx="26.34" cy="60.07" r="2.03"/><circle class="cls-2" cx="33.12" cy="64.73" r="2.03"/><circle class="cls-2" cx="41.08" cy="66.78" r="2.03"/><circle class="cls-2" cx="49.27" cy="65.99" r="2.03"/><circle class="cls-2" cx="56.69" cy="62.44" r="2.03"/><circle class="cls-2" cx="62.45" cy="56.57" r="2.03"/><circle class="cls-2" cx="65.86" cy="49.09" r="2.03"/><circle class="cls-2" cx="66.5" cy="40.89" r="2.03"/><circle class="cls-2" cx="64.29" cy="32.97" r="2.03"/><circle class="cls-2" cx="59.51" cy="26.27" r="2.03"/><circle class="cls-2" cx="52.73" cy="21.62" r="2.03"/><circle class="cls-2" cx="51.41" cy="13.46" r="2.65"/><circle class="cls-2" cx="40.73" cy="12.35" r="2.65"/><circle class="cls-2" cx="30.32" cy="14.95" r="2.65"/><circle class="cls-2" cx="21.42" cy="20.97" r="2.65"/><circle class="cls-2" cx="15.12" cy="29.66" r="2.65"/><circle class="cls-2" cx="12.17" cy="39.98" r="2.65"/><circle class="cls-2" cx="12.93" cy="50.69" r="2.65"/><circle class="cls-2" cx="17.3" cy="60.49" r="2.65"/><circle class="cls-2" cx="24.77" cy="68.21" r="2.65"/><circle class="cls-2" cx="34.42" cy="72.91" r="2.65"/><circle class="cls-2" cx="45.1" cy="74.02" r="2.65"/><circle class="cls-2" cx="55.52" cy="71.41" r="2.65"/><circle class="cls-2" cx="64.41" cy="65.4" r="2.65"/><circle class="cls-2" cx="70.71" cy="56.71" r="2.65"/><circle class="cls-2" cx="73.66" cy="46.39" r="2.65"/><circle class="cls-2" cx="72.9" cy="35.68" r="2.65"/><circle class="cls-2" cx="68.53" cy="25.87" r="2.65"/><circle class="cls-2" cx="61.06" cy="18.16" r="2.65"/><circle class="cls-2" cx="46.48" cy="3.42" r="3.42"/><circle class="cls-2" cx="32.67" cy="4.68" r="3.42"/><circle class="cls-2" cx="20.13" cy="10.59" r="3.42"/><circle class="cls-2" cx="10.37" cy="20.44" r="3.42"/><circle class="cls-2" cx="4.57" cy="33.02" r="3.42"/><circle class="cls-2" cx="3.42" cy="46.84" r="3.42"/><circle class="cls-2" cx="7.06" cy="60.21" r="3.42"/><circle class="cls-2" cx="15.06" cy="71.53" r="3.42"/><circle class="cls-2" cx="26.45" cy="79.44" r="3.42"/><circle class="cls-2" cx="39.85" cy="82.97" r="3.42"/><circle class="cls-2" cx="53.65" cy="81.7" r="3.42"/><circle class="cls-2" cx="66.19" cy="75.79" r="3.42"/><circle class="cls-2" cx="75.95" cy="65.95" r="3.42"/><circle class="cls-2" cx="81.76" cy="53.36" r="3.42"/><circle class="cls-2" cx="82.91" cy="39.55" r="3.42"/><circle class="cls-2" cx="79.27" cy="26.17" r="3.42"/><circle class="cls-2" cx="71.27" cy="14.85" r="3.42"/><circle class="cls-2" cx="59.88" cy="6.95" r="3.42"/></g><path class="cls-3" d="M88.64,165h0a2.5,2.5,0,0,1-2-2.78c1.19-9,4.09-42.75-13-76.79a2.5,2.5,0,0,1,1-3.35h0a2.5,2.5,0,0,1,3.4,1.07C96,118.83,92.93,153.29,91.59,162.92A2.5,2.5,0,0,1,88.64,165Z"/></g></g></svg>