<svg xmlns="http://www.w3.org/2000/svg" viewBox="0 0 691.39 708.47"><defs><style>.cls-1,.cls-2{fill:#fff;}.cls-1{stroke:#5e7987;stroke-width:3px;}.cls-1,.cls-3,.cls-5{stroke-miterlimit:10;}.cls-3,.cls-5{fill:none;stroke-width:2px;}.cls-3{stroke:#cae7ef;}.cls-4{fill:#cae7ef;}.cls-5{stroke:#c1dae0;}.cls-6{fill:#5e7987;}</style></defs><g id="Layer_2" data-name="Layer 2"><g id="bird"><path class="cls-1" d="M401.94,518.92l13.89,30H437l50.49-21.13c0-13.7,27.64-53.53,27.64-53.53l-3.5-29.39-55.71,12.73L435,492.92Z"/><path class="cls-2" d="M643.17,26.72S628.1-2.59,584.57,3.27,536,60.2,536,60.2s-28.47,82.05-68.65,101.31-50.24,4.18-207.63,246.13c0,0-64.47,106.33-142.33,155.73,0,0,16.75-3.35,68.66-40.19,0,0-137.31,132.28-180.84,139,0,0-13.4,9.2,19.25,5,0,0-34.32,53.58,54.42,27.63,0,0,5,30.14,36.84-8.38S268.94,543.27,268.94,543.27l98.16-76L296.93,543c12.54-1.05,59.92-12.24,132.75-51.58,0,0-34.71,22.77-49.39,37.67,0,0,93.06-41.93,127.25-70.33,0,0-10.66,11.5-15.07,25.12,0,0,205.83-69.49,158.11-264.56,0,0-19.13-108.83,1.8-167.44l31.81-24.28Z"/><path class="cls-3" d="M643.17,26.72a64.68,64.68,0,0,1-6.95,19.92,2.31,2.31,0,0,0,2.13,3.44c4.82-.25,12.1-.25,14,1.75"/><path class="cls-3" d="M470.06,162.21s-72.14,62.72-96.32,143"/><path class="cls-4" d="M97.7,602.14s-4.47,5.4,11.3,4.93c0,0-13.34,34.91,47.61,10,0,0,1.16,16.4,27.11,2l-68,67.31s-27.17,37.11-36.34,10.36c0,0-27.55,4.81-41.72,5.07,0,0-31.38,1.43-14.78-31.91,0,0,6.18-4.5-15.49-1.82,0,0-14.85-4.65,8.43-9.21S97.7,602.14,97.7,602.14Z"/><line class="cls-5" x1="133.08" y1="589.94" x2="24.47" y2="667.18"/><line class="cls-5" x1="78.89" y1="694.81" x2="204.28" y2="569.43"/><path class="cls-6" d="M641.85,28.84a2.93,2.93,0,0,1-.75-.74c-.27-.42-.15-.26-.19-.32l-.06-.1-.12-.21-.27-.44c-.18-.3-.38-.6-.57-.9-.4-.59-.81-1.18-1.25-1.75a42.29,42.29,0,0,0-2.81-3.33,47.5,47.5,0,0,0-6.54-5.81A50.88,50.88,0,0,0,613.6,7.49,62.9,62.9,0,0,0,596.09,5a80.81,80.81,0,0,0-8.92.5A52.18,52.18,0,0,0,578.46,7a46.3,46.3,0,0,0-15.7,7.51,52.47,52.47,0,0,0-12,12.73,71.72,71.72,0,0,0-8,15.9,85.47,85.47,0,0,0-2.61,8.57,70.77,70.77,0,0,0-1.64,8.71l0,.33-.09.24c-2.37,6.63-5,13-7.75,19.45s-5.72,12.7-8.86,18.92A243.11,243.11,0,0,1,500,135.2a128.56,128.56,0,0,1-13.92,15.9,70.22,70.22,0,0,1-17.4,12.53c-6.34,3.07-12.84,5.59-19,8.42a98.59,98.59,0,0,0-17.53,10.09,140.43,140.43,0,0,0-15.49,13.21c-2.48,2.35-4.83,4.85-7.21,7.31s-4.69,5-6.93,7.61c-9.09,10.31-17.69,21.1-26.09,32s-16.54,22.1-24.58,33.33l-6,8.44-5.95,8.48c-4,5.65-7.89,11.35-11.82,17q-23.49,34.17-46.23,68.88L270.46,395.8l-5.67,8.67L262,408.8l-2.76,4.41c-7.48,11.72-15.37,23.14-23.56,34.35a634.6,634.6,0,0,1-53.22,64.05c-9.6,10-19.63,19.71-30.21,28.78a299.47,299.47,0,0,1-33.47,25.09l-1.83-4.57.43-.11.53-.16,1.1-.36c.74-.26,1.48-.55,2.23-.84q2.23-.9,4.46-1.93c3-1.35,5.88-2.86,8.78-4.39,5.8-3.11,11.5-6.46,17.13-9.92q4.2-2.62,8.38-5.3c2.77-1.83,5.55-3.61,8.3-5.47s5.49-3.7,8.21-5.59l8.15-5.7,3.18,3.84Q167,544.86,145.6,564t-43.42,37.66c-14.73,12.26-29.72,24.24-45.33,35.46-7.83,5.58-15.8,11-24.13,15.92-4.17,2.45-8.44,4.78-12.89,6.83A56.72,56.72,0,0,1,5.6,664.63l1-.41A6.51,6.51,0,0,0,5,665.82c0,.08,0,.12,0,0a1.19,1.19,0,0,0-.08-.57c-.23-.43-.28-.27,0-.17a9.23,9.23,0,0,0,2.58.54c1,.1,2.11.14,3.2.14a114.85,114.85,0,0,0,13.46-1.07l5.19-.65-2.77,4.48A49.3,49.3,0,0,0,22,678.24a24.83,24.83,0,0,0-1.5,10.1A10.17,10.17,0,0,0,25,696.05a21.42,21.42,0,0,0,9.56,3.06c7.1.76,14.56-.12,21.87-1.41a221.88,221.88,0,0,0,21.81-5.29h0l2.69-.76.48,2.75c0,.3.17.79.28,1.2s.25.84.4,1.26a15.79,15.79,0,0,0,1,2.37,9.09,9.09,0,0,0,3.1,3.47,6.53,6.53,0,0,0,4.24.83,14.86,14.86,0,0,0,4.85-1.6,42.42,42.42,0,0,0,9.1-6.72,105.28,105.28,0,0,0,8.09-8.51l3.9-4.58c1.31-1.55,2.7-3,4-4.52q4.09-4.46,8.31-8.77c5.61-5.76,11.32-11.39,17.08-17,23.12-22.25,46.91-43.72,70.85-65q18-15.95,36.12-31.69l9.08-7.87,4.56-3.92,1.14-1c.42-.37.81-.65,1.2-1l2.39-1.83L290.19,525l76.21-58.55h0l1.53,1.67L298,543.94h0l-1.19-2.45a127.16,127.16,0,0,0,17.34-3.21c5.76-1.37,11.46-3.06,17.15-4.78,11.35-3.51,22.54-7.59,33.6-12s22-9.15,32.76-14.23,21.44-10.42,32-15.9h0c-4.21,3-8.36,6.13-12.49,9.27S409,507,405,510.21s-8,6.55-11.86,10a146,146,0,0,0-11,10.61h0l-2.81-4c11.09-4.82,22.14-9.85,33.12-15s21.89-10.44,32.71-15.92,21.53-11.17,32-17.21c5.25-3,10.46-6.15,15.56-9.42a180.77,180.77,0,0,0,14.85-10.5h0a83.53,83.53,0,0,0-7.69,12.49,69.33,69.33,0,0,0-2.92,6.62,56.21,56.21,0,0,0-2.08,6.78h0l-3.18-3.14c4.85-1.71,9.76-3.74,14.55-5.85s9.56-4.38,14.26-6.76a314.38,314.38,0,0,0,27.43-15.61A278.55,278.55,0,0,0,597,413.88,224.46,224.46,0,0,0,617.46,390c3.16-4.19,6-8.56,8.89-13s5.41-9,7.79-13.64a184,184,0,0,0,19.14-59.48,210.16,210.16,0,0,0-.85-62.64l-.61-3.89-.74-3.87c-.49-2.58-1-5.16-1.59-7.75l-.88-3.88-.44-1.93c-.1-.48-.13-.72-.19-1.08l-.17-1c-.43-2.64-.83-5.27-1.22-7.91q-2.3-15.81-3.81-31.71a523.28,523.28,0,0,1-2.53-63.86,293.11,293.11,0,0,1,2.5-32A160.44,160.44,0,0,1,650,51l.24-.69.59-.46,31.82-24.27,1.46,4.48C670,29.77,655.88,29.35,641.85,28.84Zm2.64-4.25c13.32.05,26.51.19,39.75.46l7.15.15-5.68,4.34L653.9,53.82l.83-1.15a156.62,156.62,0,0,0-7,30.45,291.64,291.64,0,0,0-2.45,31.44,520,520,0,0,0,2.5,63.23q1.53,15.78,3.79,31.47.57,3.92,1.21,7.82l.16,1c.05.29.11.71.15.88l.44,1.94.88,3.88c.63,2.57,1.11,5.2,1.61,7.84l.75,3.94.63,4a215.07,215.07,0,0,1,.86,64.13,189,189,0,0,1-19.66,61.08c-2.44,4.79-5.18,9.41-8,14s-5.87,9-9.1,13.27a228.43,228.43,0,0,1-20.9,24.41,283.93,283.93,0,0,1-50,40.08,320.24,320.24,0,0,1-27.86,15.86c-4.77,2.41-9.59,4.71-14.49,6.86s-9.81,4.2-15,6l-4.89,1.73,1.71-4.87h0a59.57,59.57,0,0,1,3.45-6.87,73.06,73.06,0,0,1,4.17-6.3,85.25,85.25,0,0,1,9.82-11.18h0a180.75,180.75,0,0,1-14.5,11c-5,3.45-10.11,6.76-15.27,10-10.32,6.41-20.87,12.47-31.51,18.34s-21.4,11.55-32.23,17.08-21.71,10.94-32.72,16.18l-13,6.19,10.21-10.23h0a154.85,154.85,0,0,1,12.22-10c4.18-3.15,8.44-6.14,12.74-9.07s8.63-5.79,13-8.59,8.76-5.56,13.2-8.24h0c-10.46,5.7-21,11.33-31.7,16.56s-21.54,10.26-32.53,14.92-22.13,9-33.48,12.74c-5.69,1.85-11.39,3.67-17.19,5.18a128,128,0,0,1-17.73,3.63l-3.82.45,2.63-2.9h0l70.4-75.42,1.53,1.68h0L292,527.26,273.11,542l-2.37,1.84c-.39.31-.81.62-1.13.92l-1.14,1-4.52,4-9,7.92q-18,15.87-35.86,31.93C195.3,611,171.68,632.61,148.81,655c-5.69,5.6-11.34,11.25-16.87,17q-4.14,4.31-8.15,8.73c-1.3,1.49-2.66,2.94-3.92,4.46L116,689.72a112.24,112.24,0,0,1-8.39,9,47.53,47.53,0,0,1-10.13,7.54A19.4,19.4,0,0,1,91,708.37a11.58,11.58,0,0,1-7.33-1.45,14,14,0,0,1-4.91-5.28,21.46,21.46,0,0,1-1.41-3.1c-.19-.53-.36-1.06-.52-1.6s-.28-1-.4-1.72l3.16,2h0a224,224,0,0,1-22.32,5.41c-7.58,1.33-15.33,2.29-23.33,1.46a32.7,32.7,0,0,1-6-1.2,21.19,21.19,0,0,1-5.82-2.71,15.13,15.13,0,0,1-4.59-4.95,16,16,0,0,1-2-6.36,29.42,29.42,0,0,1,1.73-12.21,51.65,51.65,0,0,1,2.23-5.54,53.43,53.43,0,0,1,2.85-5.28l2.42,3.83a120.45,120.45,0,0,1-14.09,1.11c-1.21,0-2.43,0-3.7-.16a13.65,13.65,0,0,1-4.13-1,5.36,5.36,0,0,1-1.28-.76,4.35,4.35,0,0,1-1.27-1.62A4,4,0,0,1,.06,665a5,5,0,0,1,.57-1.6,9,9,0,0,1,1.51-1.92A13.36,13.36,0,0,1,3.8,660.1l.44-.31.6-.11a51.9,51.9,0,0,0,12.9-4.34c4.23-2,8.37-4.21,12.44-6.6,8.14-4.81,16-10.15,23.76-15.68C69.39,622,84.31,610,99,597.83s29.06-24.78,43.28-37.54,28.27-25.73,42.06-38.91l3.18,3.84L179.3,531c-2.73,1.91-5.51,3.76-8.27,5.64s-5.58,3.67-8.36,5.51-5.64,3.59-8.48,5.36c-5.7,3.5-11.47,6.9-17.39,10.07-3,1.57-6,3.12-9.06,4.52-1.53.72-3.1,1.39-4.7,2-.79.32-1.6.63-2.43.92-.41.15-.84.29-1.27.42-.22.07-.43.14-.67.2s-.42.12-.78.2l-13.48,2.88,11.66-7.45A294.24,294.24,0,0,0,149,536.59a411,411,0,0,0,29.86-28.44,628.24,628.24,0,0,0,52.79-63.54c8.13-11.13,16-22.48,23.38-34.09l2.75-4.38,2.84-4.35,5.68-8.7,11.4-17.37q22.83-34.68,46.28-69c3.94-5.69,7.85-11.41,11.85-17.07l6-8.5,6-8.46c8.07-11.26,16.24-22.46,24.69-33.46s17.1-21.86,26.31-32.31c2.27-2.64,4.68-5.16,7-7.74s4.82-5,7.37-7.46a144.25,144.25,0,0,1,16.05-13.68,103.63,103.63,0,0,1,18.37-10.57c6.4-2.92,12.81-5.41,18.92-8.38a65.26,65.26,0,0,0,16.14-11.65A124.31,124.31,0,0,0,496,132.2,239.36,239.36,0,0,0,517.3,97.14q4.63-9.19,8.74-18.66c2.72-6.29,5.32-12.7,7.61-19.1l-.13.58a76.52,76.52,0,0,1,1.77-9.42A92,92,0,0,1,538,41.47a76.54,76.54,0,0,1,8.55-17,57.16,57.16,0,0,1,13.2-13.95A51,51,0,0,1,577.18,2.2,57.27,57.27,0,0,1,586.63.53,85.69,85.69,0,0,1,596.12,0,68.69,68.69,0,0,1,615,2.69a56,56,0,0,1,17.22,8.52,52.59,52.59,0,0,1,7.23,6.43,46.74,46.74,0,0,1,3.14,3.72c.5.65,1,1.32,1.43,2,.23.35.45.69.67,1.05l.33.55.16.28.09.15s.12.19-.12-.19A2.37,2.37,0,0,0,644.49,24.59Z"/><path class="cls-4" d="M361.06,443.57c3.19-.6,6.34-1.39,9.45-2.28s6.17-1.94,9.18-3.09a87.86,87.86,0,0,0,8.78-4,64.62,64.62,0,0,0,8.1-5.05l3.62-2.63-1.67,4.18a44.84,44.84,0,0,1-4.36,8.19,45.39,45.39,0,0,1-5.92,7.17c-.57.53-1.1,1.11-1.71,1.6l-1.81,1.51c-.62.49-1.29.92-1.93,1.38l-1,.68-1,.59a37.33,37.33,0,0,1-8.78,3.76h0l-.7-4.92c1.56-.09,3.31-.26,5-.48s3.37-.49,5.06-.74,3.36-.64,5.05-1l2.52-.5,2.5-.61,5-1.23,5-1.44c3.33-.89,6.57-2.08,9.84-3.17a263.93,263.93,0,0,0,37.84-16.93l9-5.17,2.26-1.29,2.18-1.4,4.38-2.82,4.38-2.81,2.19-1.41,2.12-1.51,8.46-6.08c1.4-1,2.86-2,4.2-3.08l4.07-3.26,8.14-6.51c1.39-1.05,2.63-2.28,3.95-3.41l3.9-3.47,7.8-6.93h0q-15,17.73-29.44,35.86c-4.8,6.06-9.55,12.15-14.18,18.31-2.3,3.1-4.58,6.2-6.77,9.34s-4.29,6.34-6.16,9.55l-3.36-3.46h0c6.5-3.55,13-7.38,19.35-11.28s12.69-7.94,18.92-12.1c12.45-8.32,24.6-17.11,36.25-26.53,5.84-4.69,11.51-9.59,17-14.64s10.86-10.32,16-15.82c2.57-2.73,5-5.59,7.43-8.43s4.72-5.83,6.88-8.89a127.06,127.06,0,0,0,11.64-19.24,127.61,127.61,0,0,1-11.13,19.6c-2.09,3.13-4.39,6.11-6.66,9.12s-4.72,5.87-7.23,8.67q-7.44,8.5-15.6,16.35t-16.73,15.2c-11.45,9.8-23.42,19-35.72,27.7q-9.23,6.54-18.7,12.71c-6.33,4.12-12.69,8.12-19.27,11.95h0L450,454l5.24-8c2.2-3.36,4.53-6.52,6.94-9.59s4.87-6.08,7.35-9.07q7.49-8.93,15.21-17.6,15.44-17.36,31.35-34.25h0l-7.59,7.16-3.8,3.59c-1.28,1.18-2.49,2.44-3.85,3.53l-8,6.77-4,3.39c-1.32,1.15-2.75,2.14-4.12,3.22l-8.31,6.35-2.09,1.59-2.16,1.48-4.31,3-4.32,3L461.47,420l-2.24,1.37-8.93,5.48a267.27,267.27,0,0,1-37.78,18.27c-3.3,1.21-6.56,2.52-9.93,3.53l-5,1.62-5.09,1.41-2.55.7-2.57.6c-1.73.38-3.43.84-5.18,1.14s-3.47.69-5.24.93-3.49.51-5.4.67l-21.75,1.78,21-6.71h0a32.41,32.41,0,0,0,7.83-2.75l.94-.46.9-.55c.59-.37,1.22-.7,1.79-1.11l1.72-1.24c.58-.4,1.09-.9,1.64-1.35a42.74,42.74,0,0,0,10.44-13.52l2,1.55a67.38,67.38,0,0,1-8.74,4.67,91,91,0,0,1-9.2,3.44c-3.12,1-6.27,1.8-9.45,2.49S364.29,443.18,361.06,443.57Z"/><path class="cls-6" d="M589.67,192.19a27.91,27.91,0,0,0-8.75-4.31,47.34,47.34,0,0,0-9.56-2,73.83,73.83,0,0,0-19.47.73c-12.88,2.09-25.25,6.6-37.07,12.08a272.94,272.94,0,0,0-34,19.26c-10.93,7.14-21.43,14.93-31.7,23s-20.22,16.55-30,25.26-19.34,17.6-28.72,26.71l-7,6.87-6.87,6.88c-.62.59-1,1.09-1.59,1.74l-1.63,1.84L370.06,314l-6.5,7.39L337.64,351q-51.75,59.26-102.84,119.1c-17,20-33.86,40.05-50.11,60.52-4.05,5.15-8,10.26-11.73,15.62a94.64,94.64,0,0,1-6.33,7.92c-2.3,2.56-4.6,4.81-6.83,7.2-4.49,4.73-8.89,9.55-13.13,14.47-2.11,2.46-4.19,5-6.14,7.49a58,58,0,0,0-5.21,7.78l-2.74-3.56h0c13.57-2.71,27.13-6.11,40.53-9.86s26.7-8,39.81-12.71,26-10,38.65-15.95q9.45-4.5,18.62-9.55c6.08-3.43,12.05-7.06,17.86-10.93-5.69,4-11.56,7.86-17.55,11.47s-12.15,6.94-18.38,10.13c-12.47,6.35-25.29,12-38.31,17.17s-26.26,9.78-39.63,14-26.84,8-40.59,11.17h0l-5.12,1.1,2.38-4.67a63.48,63.48,0,0,1,5.57-8.65c2-2.69,4.09-5.27,6.21-7.82,4.24-5.1,8.66-10,13.15-14.83,2.22-2.42,4.58-4.79,6.64-7.14a91,91,0,0,0,5.87-7.5c3.72-5.41,7.72-10.77,11.73-16,8-10.44,16.35-20.61,24.71-30.74S221.5,476,230,466c33.82-40.17,68.36-79.68,103-119.12l26-29.54,6.52-7.37,3.26-3.69,1.63-1.84c.51-.57,1.16-1.35,1.74-1.88l7.11-7,7.13-6.83c9.54-9.05,19.25-17.94,29.23-26.54s20.25-16.84,30.76-24.78S467.7,222,478.91,215a277.67,277.67,0,0,1,34.93-18.52c12.1-5.21,24.74-9.45,37.85-11.2a74.71,74.71,0,0,1,19.76-.14,48,48,0,0,1,9.61,2.29A28,28,0,0,1,589.67,192.19Z"/><polygon class="cls-1" points="425.23 530.94 407.22 543.07 389.61 580.65 436.97 548.94 425.23 530.94"/><ellipse class="cls-4" cx="582" cy="147.97" rx="16.24" ry="6.62" transform="translate(332.64 694.27) rotate(-79.73)"/><ellipse class="cls-4" cx="548.46" cy="142.21" rx="21.98" ry="6.62" transform="matrix(0.34, -0.94, 0.94, 0.34, 228.07, 609.52)"/><ellipse class="cls-4" cx="518.28" cy="133.94" rx="27.82" ry="6.62" transform="translate(95.33 462.07) rotate(-52.29)"/><ellipse class="cls-4" cx="610.21" cy="149.75" rx="14.84" ry="3.42" transform="translate(398.73 741.42) rotate(-84.12)"/><ellipse class="cls-4" cx="628.89" cy="150.6" rx="2.38" ry="10.32"/></g></g></svg>