<svg xmlns="http://www.w3.org/2000/svg" viewBox="0 0 475.37 487.1"><defs><style>.cls-1{fill:#fff;}.cls-2,.cls-4{fill:none;stroke-miterlimit:10;stroke-width:1.38px;}.cls-2{stroke:#cae7ef;}.cls-3{fill:#cae7ef;}.cls-4{stroke:#c1dae0;}.cls-5{fill:#5e7987;}</style></defs><g id="Layer_2" data-name="Layer 2"><g id="bird"><path class="cls-1" d="M442.21,18.37S431.85-1.78,401.92,2.25s-33.39,39.14-33.39,39.14S349,97.8,321.33,111s-34.54,2.88-142.75,169.23c0,0-44.33,73.11-97.86,107.07,0,0,11.51-2.3,47.2-27.63,0,0-94.4,91-124.33,95.55,0,0-9.21,6.33,13.24,3.46,0,0-23.6,36.84,37.41,19,0,0,3.46,20.72,25.33-5.75s105.34-98.44,105.34-98.44L252.4,321.3l-48.25,52c8.63-.72,41.2-8.41,91.28-35.46,0,0-23.87,15.65-34,25.9,0,0,64-28.83,87.49-48.35,0,0-7.33,7.9-10.36,17.27,0,0,141.51-47.78,108.7-181.9,0,0-13.15-74.83,1.24-115.12l21.87-16.7Z"/><path class="cls-2" d="M442.21,18.37a44.38,44.38,0,0,1-4.78,13.7,1.59,1.59,0,0,0,1.46,2.36c3.32-.17,8.32-.17,9.65,1.21"/><path class="cls-2" d="M323.19,111.53s-49.6,43.12-66.23,98.29"/><path class="cls-3" d="M67.18,414s-3.08,3.71,7.76,3.39c0,0-9.17,24,32.73,6.89,0,0,.81,11.28,18.64,1.39L79.57,472s-18.68,25.51-25,7.12c0,0-18.94,3.31-28.69,3.48,0,0-21.58,1-10.16-21.94,0,0,4.25-3.09-10.65-1.25,0,0-10.21-3.2,5.79-6.33S67.18,414,67.18,414Z"/><line class="cls-4" x1="91.5" y1="405.61" x2="16.83" y2="458.72"/><line class="cls-4" x1="54.24" y1="477.71" x2="140.45" y2="391.51"/><path class="cls-5" d="M441.3,19.83a2.1,2.1,0,0,1-.52-.51c-.18-.29-.1-.18-.13-.22l0-.07-.08-.14-.18-.31L440,18c-.27-.41-.56-.81-.86-1.21a27.83,27.83,0,0,0-1.93-2.29,31.63,31.63,0,0,0-4.5-4,34.81,34.81,0,0,0-10.78-5.33,43.14,43.14,0,0,0-12-1.71,57.57,57.57,0,0,0-6.14.34,36,36,0,0,0-6,1.06A31.69,31.69,0,0,0,386.92,10a36.06,36.06,0,0,0-8.27,8.75,49.09,49.09,0,0,0-5.49,10.93,56.33,56.33,0,0,0-2.92,11.88l0,.24-.06.16a242.69,242.69,0,0,1-11.42,26.38A166.77,166.77,0,0,1,343.79,93a88.61,88.61,0,0,1-9.58,10.94,48.1,48.1,0,0,1-12,8.61c-4.35,2.12-8.83,3.85-13.08,5.79a67.57,67.57,0,0,0-12.05,6.94,95.45,95.45,0,0,0-10.66,9.08c-1.7,1.62-3.31,3.34-4.95,5s-3.22,3.45-4.77,5.24c-6.25,7.09-12.16,14.5-17.93,22-11.54,15.06-22.46,30.62-33.26,46.26s-21.33,31.47-31.78,47.35L186,272.13l-3.89,6-1.95,3-1.9,3c-5.14,8.06-10.57,15.91-16.2,23.62a434.7,434.7,0,0,1-36.59,44,285.44,285.44,0,0,1-20.77,19.79,206.29,206.29,0,0,1-23,17.25l-1.26-3.14.66-.18c.25-.08.5-.16.76-.26.51-.17,1-.37,1.53-.57,1-.41,2-.85,3.06-1.33,2-.92,4-2,6-3,4-2.13,7.9-4.44,11.77-6.81s7.68-4.87,11.47-7.41,7.52-5.14,11.25-7.76l2.18,2.64q-14.3,13.67-29,26.83t-29.85,25.9c-10.13,8.42-20.44,16.66-31.17,24.37C33.7,441.89,28.23,445.62,22.5,449a99.92,99.92,0,0,1-8.87,4.7A39.06,39.06,0,0,1,3.85,457l.71-.28a4.42,4.42,0,0,0-1.11,1.1c0,.06,0,.08,0,0a.67.67,0,0,0-.06-.39c-.15-.3-.19-.19,0-.12a6.32,6.32,0,0,0,1.78.37c.7.07,1.45.1,2.2.1a79.26,79.26,0,0,0,9.25-.74l3.54-.44-1.88,3.07a33.65,33.65,0,0,0-3.12,6.68,17.22,17.22,0,0,0-1,6.95,7,7,0,0,0,3,5.29,14.74,14.74,0,0,0,6.58,2.11,54.34,54.34,0,0,0,15-1,151.6,151.6,0,0,0,15-3.64h0l1.81-.51.37,1.88c.44,2.23,1.62,4.71,3.32,5.71a4.55,4.55,0,0,0,2.91.57,10.08,10.08,0,0,0,3.34-1.1A29.65,29.65,0,0,0,71.77,478a73.25,73.25,0,0,0,5.55-5.85c3.52-4.23,7.33-8.35,11.18-12.29s7.79-7.83,11.75-11.67c15.89-15.3,32.24-30.06,48.71-44.69q12.36-11,24.83-21.79l6.25-5.41,3.13-2.7.78-.67c.29-.26.56-.45.83-.66l1.64-1.26,13.1-10.06,52.39-40.26h0l1.05,1.15L204.89,374h0l-.82-1.68A87.51,87.51,0,0,0,216,370.09c4-.94,7.88-2.1,11.79-3.28,7.81-2.42,15.5-5.22,23.1-8.26s15.12-6.28,22.53-9.78,14.74-7.16,22-10.93h0q-8.67,6.27-17,13c-2.77,2.23-5.51,4.5-8.16,6.85a102.86,102.86,0,0,0-7.58,7.3h0l-1.93-2.78c7.62-3.31,15.22-6.77,22.77-10.3s15.05-7.18,22.49-10.95,14.8-7.68,22-11.83A176.11,176.11,0,0,0,349,315.39h0a57.24,57.24,0,0,0-5.29,8.58,47,47,0,0,0-2,4.55,39.64,39.64,0,0,0-1.43,4.66h0L338.05,331a180.29,180.29,0,0,0,19.8-8.67q9.69-4.91,18.86-10.73a191.56,191.56,0,0,0,33.76-27.07,152.64,152.64,0,0,0,14.06-16.42A133.72,133.72,0,0,0,436,249.86,126.61,126.61,0,0,0,449.16,209a144.32,144.32,0,0,0-.59-43.07l-.42-2.67-.5-2.66c-.34-1.78-.67-3.55-1.1-5.33l-.6-2.67-.3-1.33c0-.1,0-.26-.08-.4l-.06-.34-.11-.68-.84-5.44q-1.57-10.86-2.62-21.8a359.19,359.19,0,0,1-1.73-43.9c.47-14.64,1.84-29.47,6.71-43.61l.17-.47.41-.32,21.87-16.69,1,3.08C460.68,20.47,451,20.18,441.3,19.83Zm1.82-2.92c9.15,0,18.22.13,27.33.32l4.92.1-3.91,3L449.58,37l.58-.79a109.8,109.8,0,0,0-4.83,20.94,205,205,0,0,0-1.69,21.61,357,357,0,0,0,1.72,43.48q1,10.85,2.6,21.64l.83,5.37.11.67.06.33a2,2,0,0,0,.05.27l.3,1.34.61,2.67c.43,1.76.76,3.58,1.1,5.39l.52,2.71.43,2.73a147.76,147.76,0,0,1,.59,44.09,130,130,0,0,1-13.51,42,139.2,139.2,0,0,1-11.75,18.74A157.51,157.51,0,0,1,412.92,287a195.13,195.13,0,0,1-34.36,27.56q-9.3,5.93-19.16,10.9a182.89,182.89,0,0,1-20.25,8.85l-3.38,1.22,1.19-3.37h0a42.52,42.52,0,0,1,2.38-4.72,49.1,49.1,0,0,1,2.86-4.33,58.41,58.41,0,0,1,6.76-7.68h0a176.3,176.3,0,0,1-20.47,14.44c-7.1,4.41-14.35,8.57-21.67,12.61s-14.71,7.94-22.16,11.74-14.92,7.52-22.49,11.13l-9,4.25,7-7h0a106.34,106.34,0,0,1,8.41-6.89c2.87-2.16,5.8-4.21,8.75-6.23,5.91-4,11.93-7.87,18-11.57h0c-7.19,3.92-14.42,7.79-21.79,11.38s-14.81,7.06-22.37,10.26-15.21,6.17-23,8.76c-3.91,1.28-7.83,2.52-11.81,3.56a87.78,87.78,0,0,1-12.19,2.5l-2.63.31,1.81-2h0l48.4-51.85,1.05,1.15h0l-52.08,40.59-13,10.15-1.63,1.27c-.26.21-.55.43-.78.63l-.77.68L181.48,378l-6.2,5.45q-12.39,10.91-24.66,22c-16.34,14.74-32.58,29.6-48.3,45C98.4,454.16,94.51,458,90.72,462s-7.47,7.95-11,12.22A75.85,75.85,0,0,1,74,480.37a32.45,32.45,0,0,1-7,5.19A13.4,13.4,0,0,1,62.57,487a8,8,0,0,1-5-1,9.59,9.59,0,0,1-3.38-3.63,15.56,15.56,0,0,1-1-2.13,14.67,14.67,0,0,1-.63-2.29l2.17,1.37h0a152.56,152.56,0,0,1-15.35,3.72,57.43,57.43,0,0,1-16,1,18.09,18.09,0,0,1-8.13-2.69,10.4,10.4,0,0,1-3.16-3.4,11,11,0,0,1-1.35-4.38,20.18,20.18,0,0,1,1.19-8.4,36.43,36.43,0,0,1,3.49-7.43l1.67,2.63a79.16,79.16,0,0,1-9.69.76,22.23,22.23,0,0,1-2.55-.11A9.07,9.07,0,0,1,2,460.41a3.28,3.28,0,0,1-1.75-1.64A2.74,2.74,0,0,1,0,457.22a3.34,3.34,0,0,1,.4-1.1,7.3,7.3,0,0,1,2.17-2.27l.28-.21.44-.08a35.87,35.87,0,0,0,8.86-3A94.87,94.87,0,0,0,20.75,446c5.6-3.31,11-7,16.33-10.78,10.63-7.64,20.89-15.83,31-24.23s20-17,29.75-25.81,19.44-17.69,28.92-26.75l2.19,2.64c-3.76,2.64-7.52,5.26-11.33,7.82S109.92,374,106,376.4s-7.89,4.75-12,6.93c-2,1.08-4.1,2.14-6.22,3.11-1.06.49-2.13.95-3.23,1.39-.55.22-1.1.44-1.68.63-.28.11-.57.2-.87.29a8.46,8.46,0,0,1-1,.27l-9.68,2.25,8.42-5.38a202,202,0,0,0,22.61-17,282.68,282.68,0,0,0,20.53-19.55,432.35,432.35,0,0,0,36.3-43.69c5.59-7.65,11-15.46,16.07-23.44l1.89-3,2-3,3.91-6,7.84-11.94q15.69-23.83,31.82-47.41c10.81-15.67,21.76-31.26,33.36-46.4,5.8-7.57,11.76-15,18.09-22.22,1.56-1.81,3.22-3.54,4.83-5.31s3.32-3.48,5.07-5.13a99.64,99.64,0,0,1,11-9.41,70.57,70.57,0,0,1,12.63-7.27c4.4-2,8.81-3.72,13-5.76a44.74,44.74,0,0,0,11.09-8A84.76,84.76,0,0,0,341,90.89a163.69,163.69,0,0,0,14.62-24.1,239.88,239.88,0,0,0,11.25-26l-.09.39a59.48,59.48,0,0,1,3.11-12.71,52.69,52.69,0,0,1,5.87-11.69,39.56,39.56,0,0,1,9.08-9.59,35.15,35.15,0,0,1,12-5.72A40.72,40.72,0,0,1,403.33.36,59.13,59.13,0,0,1,409.86,0a46.73,46.73,0,0,1,13,1.85A38.54,38.54,0,0,1,434.7,7.71a36,36,0,0,1,5,4.42,31.09,31.09,0,0,1,2.16,2.56c.34.44.67.9,1,1.37.16.24.32.47.47.72l.22.38.11.2.06.1s.09.13-.08-.13A1.69,1.69,0,0,0,443.12,16.91Z"/><path class="cls-3" d="M248.25,305a75,75,0,0,0,12.8-3.69,57.7,57.7,0,0,0,6-2.73,42.92,42.92,0,0,0,5.57-3.47l2.49-1.8L274,296.15a31.21,31.21,0,0,1-3,5.63,31.86,31.86,0,0,1-4.07,4.92,25.68,25.68,0,0,1-11.17,6.55h0l-.48-3.39a67.9,67.9,0,0,0,6.9-.84c1.16-.16,2.31-.44,3.47-.66l1.73-.34,1.72-.42,3.45-.85,3.41-1c2.29-.61,4.52-1.43,6.77-2.18a180.54,180.54,0,0,0,26-11.64L315,288.4l1.55-.89,1.5-1,3-1.94,3-1.93,1.51-1,1.46-1,5.81-4.18c1-.71,2-1.36,2.89-2.12l2.8-2.24,5.6-4.48c3.64-3.1,7.16-6.33,10.76-9.49h0q-10.31,12.19-20.24,24.66-5,6.24-9.76,12.59a145,145,0,0,0-8.89,13L313.66,306h0c9-4.93,17.75-10.37,26.32-16.07s16.91-11.77,24.92-18.24c4-3.23,7.91-6.6,11.72-10.07s7.46-7.1,11-10.88c1.77-1.87,3.43-3.84,5.11-5.79s3.24-4,4.73-6.12a86.59,86.59,0,0,0,8-13.22,87.32,87.32,0,0,1-7.65,13.47c-1.43,2.16-3,4.21-4.58,6.27s-3.24,4-5,6c-3.41,3.89-7,7.65-10.72,11.24S370,269.67,366,273c-7.88,6.74-16.11,13.05-24.56,19s-17.11,11.68-26.11,17h0l-5.91,3.1,3.6-5.48a143.77,143.77,0,0,1,9.82-12.83c3.43-4.09,6.93-8.11,10.46-12.1q10.62-11.94,21.56-23.55h0c-3.5,3.27-6.93,6.61-10.48,9.82l-5.48,4.65L336.17,275c-.91.79-1.89,1.47-2.84,2.22l-5.71,4.36-1.43,1.09-1.49,1-3,2-3,2-1.48,1-1.54.94-6.14,3.77a182.89,182.89,0,0,1-26,12.56c-2.26.84-4.5,1.73-6.82,2.43l-3.45,1.11-3.5,1a87.93,87.93,0,0,1-14.4,2.78l-15.89,1.52L255,309.91h0a22.07,22.07,0,0,0,5.38-1.89,22.68,22.68,0,0,0,4.81-3.24,28.33,28.33,0,0,0,4-4.28,29,29,0,0,0,3.13-5l1.34,1.07a45.54,45.54,0,0,1-6,3.21,58.85,58.85,0,0,1-6.33,2.36A75.8,75.8,0,0,1,248.25,305Z"/><path class="cls-5" d="M405.42,132.14a19.18,19.18,0,0,0-6-3,33.57,33.57,0,0,0-6.58-1.35,50.43,50.43,0,0,0-13.38.51,98,98,0,0,0-25.48,8.3c-16.26,7.64-31.1,18-45.21,29.05q-10.58,8.35-20.6,17.37t-19.75,18.36l-4.81,4.73-4.72,4.73c-.75.74-1.46,1.62-2.22,2.46l-2.23,2.53L250,220.94l-17.82,20.35q-35.6,40.75-70.71,81.89c-11.66,13.74-23.28,27.54-34.45,41.61-2.79,3.54-5.48,7.06-8.07,10.74a65,65,0,0,1-4.36,5.45c-1.57,1.76-3.16,3.31-4.69,4.95q-4.64,4.88-9,9.94c-1.45,1.7-2.88,3.41-4.22,5.16A39.61,39.61,0,0,0,93,406.38l-1.89-2.46h0c9.33-1.87,18.65-4.2,27.87-6.78s18.36-5.49,27.37-8.74,17.9-6.87,26.57-11q6.5-3.09,12.8-6.56c4.18-2.36,8.29-4.85,12.28-7.52q-5.87,4.18-12.06,7.89t-12.64,7C164.78,382.57,156,386.47,147,390s-18,6.72-27.25,9.6-18.45,5.49-27.91,7.68h0l-3.52.76L90,404.84a42.72,42.72,0,0,1,3.83-5.95c1.37-1.85,2.81-3.62,4.27-5.38,2.91-3.5,6-6.86,9-10.19,1.52-1.67,3.15-3.29,4.56-4.91a59.6,59.6,0,0,0,4-5.16c2.56-3.72,5.31-7.4,8.07-11,5.52-7.17,11.23-14.17,17-21.14s11.54-13.88,17.36-20.78c23.25-27.61,47-54.78,70.8-81.9l17.88-20.31,4.49-5.07,2.24-2.53c.75-.83,1.46-1.71,2.32-2.56l4.89-4.79,4.89-4.69c6.57-6.23,13.24-12.34,20.1-18.25s13.92-11.58,21.15-17,14.69-10.61,22.41-15.37a190,190,0,0,1,24-12.73,99,99,0,0,1,26-7.7,51,51,0,0,1,13.58-.1,33.2,33.2,0,0,1,6.6,1.57A19.31,19.31,0,0,1,405.42,132.14Z"/><ellipse class="cls-3" cx="400.15" cy="101.74" rx="11.16" ry="4.55" transform="translate(228.7 477.34) rotate(-79.73)"/><ellipse class="cls-3" cx="377.09" cy="97.77" rx="15.12" ry="4.55" transform="translate(156.81 419.07) rotate(-70.1)"/><ellipse class="cls-3" cx="356.34" cy="92.09" rx="19.13" ry="4.55" transform="translate(65.54 317.69) rotate(-52.29)"/><ellipse class="cls-3" cx="419.55" cy="102.96" rx="10.2" ry="2.35" transform="translate(274.15 509.76) rotate(-84.12)"/><ellipse class="cls-3" cx="432.39" cy="103.54" rx="1.64" ry="7.1"/></g></g></svg>