<svg xmlns="http://www.w3.org/2000/svg" viewBox="0 0 820.23 123.29"><defs><style>.cls-1{fill:#fff;}</style></defs><g id="Layer_2" data-name="Layer 2"><g id="Layer_6" data-name="Layer 6"><path class="cls-1" d="M22,116.88a41.89,41.89,0,0,1-15.9-14.19A34,34,0,0,1,.34,83.79q0-6.5,3.34-9.4a12.64,12.64,0,0,1,8.63-2.91q12.48,0,13,10.43.51,8.72,6.33,13.42A20.57,20.57,0,0,0,45,100,23.16,23.16,0,0,0,56.6,97.13a9.29,9.29,0,0,0,5.13-8.55,9.69,9.69,0,0,0-3.25-7.44,23,23,0,0,0-7.61-4.62q-4.35-1.62-12-3.84a143.8,143.8,0,0,1-17.62-6A42.32,42.32,0,0,1,6.75,56.17Q0,48.91,0,37.45A32.58,32.58,0,0,1,5.73,18.64,38.64,38.64,0,0,1,21.2,5.56,48.51,48.51,0,0,1,42.58.85a47.45,47.45,0,0,1,22,5.05A40.48,40.48,0,0,1,80,19.32a31.07,31.07,0,0,1,5.64,17.62q0,11.28-12.31,11.28-5.31,0-8-2.56t-4.19-8.38A20.59,20.59,0,0,0,55,27.19q-4.71-4.28-12.4-4.28a19.93,19.93,0,0,0-12.65,4A13.07,13.07,0,0,0,24.8,37.79a7.52,7.52,0,0,0,3.84,7Q32.5,47,43.43,50.27c.69.23,1.48.49,2.4.77l2.91.94A129,129,0,0,1,66,58.65,43.59,43.59,0,0,1,80.2,69.77q6.33,7.35,6.33,18.29A29.7,29.7,0,0,1,81,105.76a37,37,0,0,1-15,12.14,49.55,49.55,0,0,1-21,4.37A48.4,48.4,0,0,1,22,116.88Z"/><path class="cls-1" d="M215,70.28A11.31,11.31,0,0,1,218.54,79a38.58,38.58,0,0,1-6.93,22.49,46.4,46.4,0,0,1-19.07,15.65,63.73,63.73,0,0,1-27.18,5.64q-17.79,0-31.38-7.1A51.06,51.06,0,0,1,112.86,95.5q-7.53-13.08-7.53-30.18a76.28,76.28,0,0,1,7.1-33.09A58.91,58.91,0,0,1,131.84,8.64,46.29,46.29,0,0,1,159,0Q178.7,0,189.3,9.23V8.38q0-3.26,3.24-5.64a13.45,13.45,0,0,1,8.21-2.4q5.82,0,9.07,2.82t3.24,8.13l-.17,16.41q-.34,15-12.31,15.05a14.64,14.64,0,0,1-5.38-1,8.64,8.64,0,0,1-4-2.9q-4.45-6-7.19-9.07a23.58,23.58,0,0,0-7.18-5.3,24.32,24.32,0,0,0-10.94-2.22q-8.73,0-17,5.81a43.69,43.69,0,0,0-13.5,15.65,45.07,45.07,0,0,0-5.22,21.46,35.62,35.62,0,0,0,4.7,18.3A33.53,33.53,0,0,0,147.66,96a35.71,35.71,0,0,0,17.7,4.53A34,34,0,0,0,179,97.81,24.88,24.88,0,0,0,189.21,90a18.23,18.23,0,0,0,3.85-11.37,11.33,11.33,0,0,1,3.25-8.38Q199.55,67,205.37,67,211.52,67,215,70.28Z"/><path class="cls-1" d="M329.77,103.46a8.57,8.57,0,0,1,1.63,5.47,11.58,11.58,0,0,1-3.17,8.29,10.72,10.72,0,0,1-8.12,3.34,17.72,17.72,0,0,1-5.3-.86,16.07,16.07,0,0,1-4.45-2L266.42,90.46v21.72a10.87,10.87,0,0,1-3.08,8c-2,2.06-5,3.08-8.9,3.08-4.21,0-7.41-1.14-9.57-3.42s-3.25-5.41-3.25-9.4q0-24.63-.51-55.07l-.34-17.27-1.2.35a5.77,5.77,0,0,1-1.54.34q-7.18,0-7.18-12.31a9.37,9.37,0,0,1,2.56-6.67,29.31,29.31,0,0,1,7.18-5.3V13q0-11.29,14.88-11.29c3.31,0,5.64.32,7,.94s2.11,1.34,2.23,2.14a1,1,0,0,0,.17.68Q277,2.05,283,2.05q15.39,0,26.76,4.79t17.53,13.42A33.14,33.14,0,0,1,333.45,40q0,16.93-13.77,26.34T284,76.09l41,23.6A15.45,15.45,0,0,1,329.77,103.46Zm-63.7-75.59q.35,7.87.35,27.53v1.2a111.25,111.25,0,0,0,14.53.69q11.46,0,18-4.45a14.11,14.11,0,0,0,6.49-12.31,13.92,13.92,0,0,0-5.81-11.72q-5.82-4.35-16.25-4.36A49.9,49.9,0,0,0,266.07,27.87Z"/><path class="cls-1" d="M378.76,114A50.12,50.12,0,0,1,357.9,93.79q-7.36-13.08-7.36-30.86,0-18,7.53-32.06A55.31,55.31,0,0,1,379,8.81q13.41-8,30.69-8a62.64,62.64,0,0,1,32.06,8.3,59.73,59.73,0,0,1,22.4,22.66,63.4,63.4,0,0,1,8.13,31.8q0,17.28-7.95,30.27a53.58,53.58,0,0,1-22,20.09q-14,7.09-32.15,7.1Q392.27,121.07,378.76,114Zm51-19.24a30.68,30.68,0,0,0,13-12.31q4.79-8.2,4.79-19.83A44.77,44.77,0,0,0,443,42.15a33.78,33.78,0,0,0-12.91-14,36.77,36.77,0,0,0-19.32-5.05,34.56,34.56,0,0,0-18.9,5.05A33.19,33.19,0,0,0,379.61,42a45.44,45.44,0,0,0-4.27,20.09q0,17.79,10,27.28t25.91,9.49A40.68,40.68,0,0,0,429.72,94.73Z"/><path class="cls-1" d="M504,119a18.6,18.6,0,0,1-10.35-12q-2.57-8.39-2.56-25.82a333,333,0,0,1,1.79-36.09q1.8-16.41,4.88-34.54A9.76,9.76,0,0,1,502,4a15.22,15.22,0,0,1,9-2.48c3.88,0,6.81.94,8.81,2.82a10,10,0,0,1,3,7.61,20.34,20.34,0,0,1-.34,3.08q-3.58,21-5.47,35.82a245,245,0,0,0-1.88,31,69.84,69.84,0,0,0,.77,12.31c.51,2.62,1.53,4.45,3.07,5.47s4,1.54,7.27,1.54q10.61,0,36.6-4.79a13.13,13.13,0,0,1,2.39-.17,8.6,8.6,0,0,1,7.1,3.34,12.18,12.18,0,0,1,2.65,7.78q0,9.06-13.17,11.45-11.81,2.23-17.87,3a126,126,0,0,1-15.3.77Q511.79,122.61,504,119Z"/><path class="cls-1" d="M603.19,119a18.61,18.61,0,0,1-10.34-12q-2.57-8.39-2.57-25.82a332.85,332.85,0,0,1,1.8-36.09q1.8-16.41,4.87-34.54A9.77,9.77,0,0,1,601.14,4a15.22,15.22,0,0,1,9-2.48q5.8,0,8.81,2.82a10,10,0,0,1,3,7.61,21.76,21.76,0,0,1-.34,3.08q-3.6,21-5.48,35.82a246.88,246.88,0,0,0-1.88,31A70.84,70.84,0,0,0,615,94.22c.52,2.62,1.54,4.45,3.08,5.47s4,1.54,7.27,1.54q10.6,0,36.59-4.79a13.33,13.33,0,0,1,2.4-.17,8.58,8.58,0,0,1,7.09,3.34,12.12,12.12,0,0,1,2.65,7.78q0,9.06-13.16,11.45-11.8,2.23-17.87,3a126.09,126.09,0,0,1-15.31.77Q611,122.61,603.19,119Z"/><path class="cls-1" d="M704.67,3.13H820.23L762.34,122.35Z"/></g></g></svg>