<svg xmlns="http://www.w3.org/2000/svg" viewBox="0 0 507.65 455.5"><defs><style>.cls-1{fill:#8dffd9;}.cls-2{fill:#fff;}</style></defs><g id="Layer_2" data-name="Layer 2"><g id="fan"><path class="cls-1" d="M427.57,77a15.32,15.32,0,0,0,4.07-17.17C416,21.67,376.63,6.2,356,.55a15.41,15.41,0,0,0-18.17,8.61l-84,188.72,30.53,17.38Z"/><path class="cls-1" d="M499.16,187.09a15.41,15.41,0,0,0-17.46-10L278.88,216.4l2.88,30.91-2.44-2.11-25.49,24.17,90.76,177.18a15.3,15.3,0,0,0,15.25,8.88c41.05-3.95,67.27-37.09,78.65-55.16a15.42,15.42,0,0,0-3-19.88L287.72,252.47l189.8,37A15.33,15.33,0,0,0,493.93,283C516.19,248.3,506.34,207.21,499.16,187.09Z"/><path class="cls-1" d="M223.3,215.26l30.53-17.38-84-188.72A15.41,15.41,0,0,0,151.62.55C131,6.2,91.71,21.67,76,59.81A15.32,15.32,0,0,0,80.08,77Z"/><path class="cls-1" d="M225.9,247.31l2.87-30.91L26,177.13a15.41,15.41,0,0,0-17.46,10c-7.18,20.12-17,61.21,5.23,95.92a15.33,15.33,0,0,0,16.41,6.51l189.8-37L72.13,380.39a15.42,15.42,0,0,0-3,19.88c11.38,18.07,37.6,51.21,78.65,55.16a15.3,15.3,0,0,0,15.25-8.88l90.77-177.18L228.34,245.2Z"/></g><g id="center"><circle class="cls-2" cx="253.83" cy="233.39" r="35.98"/></g></g></svg>