<svg xmlns="http://www.w3.org/2000/svg" viewBox="0 0 211.72 211.72"><defs><style>.cls-1{fill:#e7370d;}.cls-2{fill:#fff;}</style></defs><g id="Layer_2" data-name="Layer 2"><g id="Layer_1-2" data-name="Layer 1"><rect class="cls-1" width="211.72" height="211.72"/><path class="cls-2" d="M44.29,162.78h8.65S47.75,150,34.14,150.25,16,158.68,16,162.78v18a12.65,12.65,0,0,0,5.6,10.6A22.92,22.92,0,0,0,34.46,195c13.51,0,18.48-12.1,18.48-12.1H44.08s-1.08,5.62-9.62,6.27l-.52,0a10.34,10.34,0,0,1-10.61-10.4V168a11.39,11.39,0,0,1,10.49-11.45c.21,0,.42,0,.64,0C43.21,156.3,44.29,162.78,44.29,162.78Z"/><path class="cls-2" d="M84.05,150.25H76.27L56.61,195H65.9L73,177.48,94.42,195h8.86Zm-8.64,21L80,160l8.25,20.24Z"/><polygon class="cls-2" points="135.48 168.62 152.76 150.25 141.75 150.25 122.3 170.79 122.3 150.25 113.87 150.25 113.87 194.98 122.3 194.98 122.3 181.29 130.51 172.7 145.09 194.98 154.71 194.98 135.48 168.62"/><polygon class="cls-2" points="199.28 156.52 199.28 150.25 172.91 150.25 165.08 150.25 165.08 156.52 165.08 169.48 165.08 175.75 165.08 188.71 165.08 194.98 172.91 194.98 199.28 194.98 199.28 188.71 172.91 188.71 172.91 175.75 195.37 175.75 195.37 169.48 172.91 169.48 172.91 156.52 199.28 156.52"/><polygon class="cls-2" points="36.08 112 36.08 22.61 15.99 22.61 15.99 112 15.99 126.56 36.08 126.56 94.83 126.56 94.83 112 36.08 112"/><polygon class="cls-2" points="199.28 37.17 199.28 22.61 135 22.61 115.92 22.61 115.92 37.17 115.92 67.3 115.92 81.87 115.92 112 115.92 126.56 135 126.56 199.28 126.56 199.28 112 135 112 135 81.87 189.74 81.87 189.74 67.3 135 67.3 135 37.17 199.28 37.17"/></g></g></svg>