<svg xmlns="http://www.w3.org/2000/svg" viewBox="0 0 106.75 134.56"><defs><style>.cls-1{fill:#e7380d;}</style></defs><g id="Layer_2" data-name="Layer 2"><g id="Layer_1-2" data-name="Layer 1"><rect class="cls-1" y="40.61" width="106.75" height="93.95" rx="8.54"/><path class="cls-1" d="M24.85,21.26a9.36,9.36,0,0,1,3.22-7.1c4.45-3.86,12.2-8.52,23.82-8.83a38.54,38.54,0,0,1,25.93,9.19,9.34,9.34,0,0,1,3.34,7.21V40.61h5.31V21.73a14.62,14.62,0,0,0-5.25-11.29A43.67,43.67,0,0,0,51.75,0c-13.19.35-22,5.69-27.16,10.12a14.69,14.69,0,0,0-5.06,11.12V40.61h5.32Z"/></g></g></svg>