<svg xmlns="http://www.w3.org/2000/svg" viewBox="0 0 618.41 96.89"><defs><style>.cls-1{fill:#e7370d;}</style></defs><g id="Layer_2" data-name="Layer 2"><g id="Layer_1-2" data-name="Layer 1"><polygon class="cls-1" points="18.72 83.32 18.72 0.01 0 0.01 0 83.32 0 96.89 18.72 96.89 73.48 96.89 73.48 83.32 18.72 83.32"/><polygon class="cls-1" points="170.83 13.58 170.83 0.01 110.92 0.01 93.14 0.01 93.14 13.58 93.14 41.66 93.14 55.23 93.14 83.32 93.14 96.89 110.92 96.89 170.83 96.89 170.83 83.32 110.92 83.32 110.92 55.23 161.94 55.23 161.94 41.66 110.92 41.66 110.92 13.58 170.83 13.58"/><path class="cls-1" d="M282.69,27.15h18.72S290.18-.46,260.69,0s-39.31,18.25-39.31,27.14v39a27.4,27.4,0,0,0,12.15,22.95c6.34,4.18,15.43,7.82,27.87,7.82,29.25,0,40-26.21,40-26.21H282.22s-2.34,12.17-20.82,13.57l-1.14.07c-12.6.49-23-9.9-23-22.51V38.44c0-12.9,9.84-23.94,22.71-24.8.46,0,.92-.05,1.4-.06C280.35,13.11,282.69,27.15,282.69,27.15Z"/><path class="cls-1" d="M368.81,0H352L309.37,96.89H329.5L344.94,59l46.34,37.91h19.19Zm-18.72,45.4,9.83-24.34,17.87,43.85Z"/><polygon class="cls-1" points="480.2 39.79 517.64 0.01 493.77 0.01 451.65 44.49 451.65 0 433.4 0 433.4 96.89 451.65 96.89 451.65 67.23 469.44 48.64 501.03 96.89 521.86 96.89 480.2 39.79"/><polygon class="cls-1" points="618.41 13.58 618.41 0 561.28 0 544.32 0 544.32 13.58 544.32 41.66 544.32 55.23 544.32 83.31 544.32 96.89 561.28 96.89 618.41 96.89 618.41 83.31 561.28 83.31 561.28 55.23 609.93 55.23 609.93 41.66 561.28 41.66 561.28 13.58 618.41 13.58"/></g></g></svg>